<?xml version="1.0" encoding="utf-8"?>
<!-- Generator: Adobe Illustrator 24.0.0, SVG Export Plug-In . SVG Version: 6.00 Build 0)  -->
<svg version="1.1" id="Layer_1" xmlns="http://www.w3.org/2000/svg" xmlns:xlink="http://www.w3.org/1999/xlink" x="0px" y="0px"
	 viewBox="0 0 25.2 30" style="enable-background:new 0 0 25.2 30;" xml:space="preserve">
<style type="text/css">
	.st0{fill:#006BFF;}
	.st1{fill:#57EBB9;}
</style>
<path class="st0" d="M14.1,0H9.7c-3.1,0-5.9,1.9-7,4.8c-0.9,2.4-1.9,4.8-2.3,6.1c-2,8.1,5.2,10.7,7,11c3.4,0.7,6.1-1.3,7.1-2.6
	c0.1-0.2,0-0.4-0.3-0.4c-5.1,1.1-6.4-3.3-5.7-5L14.1,0z"/>
<path class="st1" d="M11.1,30h4.4c3.1,0,5.9-1.9,7-4.8c0.9-2.4,1.9-4.8,2.3-6.1c2-8.1-5.2-10.7-7-11c-3.4-0.7-6.1,1.3-7.1,2.6
	c-0.1,0.2,0,0.4,0.3,0.4c5.1-1.1,6.4,3.3,5.7,5L11.1,30z"/>
</svg>
